<?xml version="1.0" standalone="no"?>
<!DOCTYPE svg PUBLIC "-//W3C//DTD SVG 20010904//EN"
 "http://www.w3.org/TR/2001/REC-SVG-20010904/DTD/svg10.dtd">
<svg version="1.0" xmlns="http://www.w3.org/2000/svg"
 width="908.000000pt" height="351.000000pt" viewBox="0 0 908.000000 351.000000"
 preserveAspectRatio="xMidYMid meet">

<g transform="translate(0.000000,351.000000) scale(0.100000,-0.100000)"
fill="#187695" stroke="none">
<path d="M1755 3036 c-55 -25 -103 -73 -137 -139 -18 -34 -23 -58 -23 -127 0
-75 3 -91 29 -137 52 -94 137 -144 245 -146 176 -2 311 121 311 283 0 115 -64
219 -165 266 -71 33 -189 33 -260 0z"/>
<path d="M1480 2521 c-177 -57 -318 -198 -378 -379 -23 -69 -26 -93 -26 -232
-1 -139 11 -237 32 -274 3 -5 11 15 19 45 25 97 81 195 160 279 108 116 201
167 362 204 91 21 302 21 458 1 400 -53 665 -182 822 -404 37 -53 38 -46 7 45
-66 196 -196 380 -363 516 -100 82 -229 160 -310 188 l-71 24 -45 -41 c-100
-93 -233 -124 -372 -88 -63 17 -151 68 -187 110 -25 29 -35 30 -108 6z"/>
<path d="M6195 2325 c-22 -8 -41 -15 -42 -15 -1 0 -14 -17 -28 -37 -48 -71
-25 -186 47 -228 45 -27 131 -27 178 0 50 29 84 101 76 159 -9 56 -38 93 -90
117 -49 22 -87 23 -141 4z"/>
<path d="M3768 2320 c-32 -4 -65 -13 -73 -20 -13 -11 -15 -92 -15 -644 0 -478
3 -635 12 -644 13 -13 202 -17 232 -6 14 5 16 33 16 209 l0 202 148 6 c201 9
282 32 396 115 106 77 165 225 153 382 -17 221 -160 366 -395 400 -77 11 -389
11 -474 0z m468 -207 c51 -27 98 -80 115 -130 19 -57 17 -170 -4 -225 -23 -59
-91 -123 -149 -138 -23 -7 -90 -13 -148 -14 l-105 -1 -3 269 -2 268 127 -4
c107 -3 135 -7 169 -25z"/>
<path d="M5702 2302 c-10 -7 -12 -144 -10 -653 l3 -644 100 -3 c55 -2 110 0
123 3 l22 5 -2 648 -3 647 -110 3 c-60 1 -116 -2 -123 -6z"/>
<path d="M6582 2298 c-17 -17 -17 -1269 0 -1286 15 -15 206 -16 228 -2 12 8
16 48 20 225 l5 216 82 -108 c181 -238 214 -279 248 -311 l35 -32 129 0 c72 0
132 4 135 9 8 12 -45 81 -219 288 -83 98 -154 184 -159 191 -8 13 50 87 236
310 43 51 78 97 78 102 0 7 -44 10 -122 8 l-123 -3 -120 -146 c-66 -81 -139
-168 -162 -195 l-42 -49 -1 386 c0 286 -3 388 -12 397 -8 8 -49 12 -118 12
-69 0 -110 -4 -118 -12z"/>
<path d="M964 2207 c-140 -147 -227 -314 -271 -517 -21 -100 -25 -376 -5 -422
10 -24 17 -28 51 -28 150 0 316 -161 337 -327 8 -68 -16 -163 -58 -229 l-30
-48 24 -18 c44 -36 203 -108 282 -128 59 -15 112 -20 210 -20 158 0 260 22
380 80 75 37 242 157 232 167 -3 3 -36 -2 -75 -11 -189 -43 -436 0 -584 103
-210 144 -377 441 -468 831 -33 141 -33 374 -1 480 13 41 37 99 53 128 16 28
25 52 20 52 -5 0 -49 -42 -97 -93z"/>
<path d="M2374 1960 c111 -106 180 -258 192 -423 14 -188 -70 -444 -218 -666
-213 -320 -442 -473 -727 -488 -129 -7 -126 -12 24 -44 124 -26 315 -26 443 1
207 42 395 139 544 279 l62 58 -28 63 c-53 118 -45 232 24 340 60 91 136 139
264 165 l29 6 -6 88 c-19 267 -175 488 -432 611 -73 36 -181 70 -218 70 -8 0
13 -27 47 -60z"/>
<path d="M4955 1915 c-116 -26 -215 -74 -215 -104 0 -35 46 -136 64 -139 9 -2
50 12 89 32 143 70 305 68 342 -5 8 -15 15 -48 15 -73 0 -54 4 -52 -150 -60
-184 -10 -315 -56 -380 -135 -64 -77 -75 -203 -25 -301 30 -59 57 -83 129
-116 131 -60 323 -35 417 53 l27 24 21 -34 c31 -50 81 -72 166 -72 94 0 125
19 125 75 0 28 -4 40 -14 40 -8 0 -24 9 -37 19 -24 19 -24 20 -29 303 -5 269
-6 286 -28 333 -43 92 -102 135 -221 161 -81 17 -216 16 -296 -1z m295 -581
c0 -104 -1 -106 -29 -133 -77 -72 -247 -66 -286 10 -8 15 -15 48 -15 73 0 50
30 95 82 122 31 16 120 31 201 33 l47 1 0 -106z"/>
<path d="M6137 1904 c-4 -4 -7 -204 -7 -444 0 -326 3 -439 12 -448 14 -14 215
-17 236 -4 10 7 12 104 10 453 l-3 444 -121 3 c-66 1 -123 -1 -127 -4z"/>
<path d="M7507 1903 c-12 -11 -8 -648 4 -702 31 -148 159 -228 348 -219 91 4
181 36 228 80 l21 20 44 -45 c36 -37 52 -46 93 -53 61 -9 155 9 173 33 6 9 12
31 12 49 0 27 -5 34 -30 43 -18 6 -34 21 -40 36 -6 16 -10 171 -10 384 0 264
-3 360 -12 369 -13 13 -202 17 -232 6 -14 -5 -16 -44 -16 -328 0 -345 -1 -350
-52 -377 -59 -32 -190 -26 -232 10 -42 36 -46 66 -46 379 0 218 -3 301 -12
310 -13 13 -229 18 -241 5z"/>
<path d="M565 1136 c-67 -32 -120 -88 -145 -153 -41 -110 -18 -216 64 -299 83
-82 197 -106 310 -64 102 39 165 123 173 234 6 76 -8 130 -50 193 -69 103
-233 145 -352 89z"/>
<path d="M2900 1139 c-100 -45 -160 -138 -160 -248 0 -88 16 -135 68 -193 56
-62 110 -89 188 -96 210 -16 368 185 295 377 -28 74 -66 117 -134 151 -51 26
-71 30 -136 30 -55 0 -89 -6 -121 -21z"/>
</g>
</svg>
